<?xml version="1.0" encoding="utf-8"?>
<!-- Generator: Adobe Illustrator 18.1.1, SVG Export Plug-In . SVG Version: 6.00 Build 0)  -->
<svg version="1.1" id="Capa_1" xmlns="http://www.w3.org/2000/svg" xmlns:xlink="http://www.w3.org/1999/xlink" x="0px" y="0px"
	 viewBox="0 0 73.5 85" enable-background="new 0 0 73.5 85" xml:space="preserve">
<g>
	<g>
		<path fill-rule="evenodd" clip-rule="evenodd" fill="#2B478E" d="M12.5,81.4h-5V67.7h5V72H16c0.8,0,1.3,0.2,1.9,0.7
			c0.2-0.5,0.5-0.7,0.9-0.7h8.7c0.4,0,0.6,0.4,0.8,0.6c0.5-0.3,1.1-0.6,1.6-0.6H46c1,0,2.1,1.1,2.6,1.7V72h8.3c0.7,0,2,0.9,2.7,1.9
			c0.4-0.7,1.6-1.9,2.3-1.9h5v3.2c-1.3,0.1-1.8,0.5-2.3,1.4v4.8h-13c-1.1-0.2-1.9-0.9-2.6-1.8v1.8H12.5z"/>
		<g>
			<path fill-rule="evenodd" clip-rule="evenodd" fill="#FFFFFF" d="M60.2,80.5v-5.6c0.2-1,0.9-1.5,1.7-1.9H66v1.4
				c-1.3,0.4-1.9,1.1-2.3,2v4.1H60.2L60.2,80.5z M55.5,80.5H59v-5.1c0-1.4-1.1-2.2-2.1-2.4h-7.4v1.9h5.1v1.3h-5.1v1.5
				c0.1,1.8,0.9,2.6,2.3,2.8h2.2v-3.1c0-0.9,1.4-0.9,1.4,0V80.5L55.5,80.5z M33.8,80.5V73h12.4c0.8,0.2,1.4,0.9,2,1.8v5.7h-3.5v-5.1
				h-1.4v5.1h-4v-5.1h-1.4v5.1H33.8L33.8,80.5z M29.3,77.4c0,0.4,0.3,0.6,0.7,0.6c0.4,0,0.7-0.3,0.7-0.6v-2.1c0-0.4-0.3-0.6-0.7-0.6
				c-0.4,0-0.7,0.3-0.7,0.6V77.4L29.3,77.4z M25.3,80.5l3.3-6.8c0.2-0.3,0.9-0.6,1.3-0.7h2.7v5.3h-3.9v1.3h3.9v0.9L25.3,80.5
				L25.3,80.5z M18.6,73.2l3.9,7.2H24l3.5-7.2L27.3,73h-3.7v5.4h-1.2l0-5.4h-3.5L18.6,73.2L18.6,73.2z M16,80.5L16,80.5h-3.1V73h2.9
				c0.7,0,1.4,0.1,1.9,1l3.6,6.5h-3.9v-5.1H16V80.5L16,80.5z M8.4,73h3.2v7.5H8.4V73L8.4,73z M8.4,68.7h3.2v2.8H8.4V68.7z"/>
		</g>
	</g>
	<g>
		<radialGradient id="SVGID_1_" cx="36.8336" cy="35.0376" r="33.1465" gradientUnits="userSpaceOnUse">
			<stop  offset="0" style="stop-color:#68A7DD"/>
			<stop  offset="0.1602" style="stop-color:#5D96CF"/>
			<stop  offset="0.7268" style="stop-color:#395DA0"/>
			<stop  offset="1" style="stop-color:#2B478E"/>
		</radialGradient>
		
			<path fill-rule="evenodd" clip-rule="evenodd" fill="url(#SVGID_1_)" stroke="#FFFFFF" stroke-width="0.75" stroke-miterlimit="10" d="
			M53.9,67.3c0,0,1.1-3.8,6.2-4.6l10.7-32.5c0,0-3-2.5-2.5-7.2L40.5,2.8c0,0-3.4,2.5-7.4,0L5.3,22.9c0,0,1,4.4-2.5,7.3l10.5,32.4
			c0,0,4.7,0.6,6.2,4.7L53.9,67.3z"/>
		<g>
			<g>
				<path fill-rule="evenodd" clip-rule="evenodd" fill="none" stroke="#FFFFFF" stroke-width="0.75" stroke-miterlimit="10" d="
					M63.2,28.7c0,0,1.1,6.4-5.6,13L65,49"/>
				<path fill-rule="evenodd" clip-rule="evenodd" fill="none" stroke="#FFFFFF" stroke-width="0.75" stroke-miterlimit="10" d="
					M53,59.6c0,0,4-3.8,2.9-13.1l10.7-2.8"/>
			</g>
			<g>
				<path fill-rule="evenodd" clip-rule="evenodd" fill="none" stroke="#FFFFFF" stroke-width="0.75" stroke-miterlimit="10" d="
					M53,59.6c0,0-5.7,2.6-14.1-1.6l-4.6,9.5"/>
				<path fill-rule="evenodd" clip-rule="evenodd" fill="none" stroke="#FFFFFF" stroke-width="0.75" stroke-miterlimit="10" d="
					M20.5,59.6c0,0,5,2.6,13.4-1.6l6.4,9.5"/>
			</g>
			<g>
				<path fill-rule="evenodd" clip-rule="evenodd" fill="none" stroke="#FFFFFF" stroke-width="0.75" stroke-miterlimit="10" d="
					M36.8,9.7c0,0,6.2,1.1,10.6,9.4l9.2-4.9"/>
				<path fill-rule="evenodd" clip-rule="evenodd" fill="none" stroke="#FFFFFF" stroke-width="0.75" stroke-miterlimit="10" d="
					M63.2,28.7c0,0-2.5-5-11.7-6.6l0.5-11.3"/>
			</g>
			<g>
				<path fill-rule="evenodd" clip-rule="evenodd" fill="none" stroke="#FFFFFF" stroke-width="0.75" stroke-miterlimit="10" d="
					M10.6,28.5c0,0,3-5.5,12.3-7l-1.6-10.3"/>
				<path fill-rule="evenodd" clip-rule="evenodd" fill="none" stroke="#FFFFFF" stroke-width="0.75" stroke-miterlimit="10" d="
					M37.2,9.7c0,0-5.5,0.7-10.1,8.9l-10.5-4.1"/>
			</g>
			<g>
				<path fill-rule="evenodd" clip-rule="evenodd" fill="none" stroke="#FFFFFF" stroke-width="0.75" stroke-miterlimit="10" d="
					M20.5,59.6c0,0-4.4-4.6-3-13.8L7.2,44.3"/>
				<path fill-rule="evenodd" clip-rule="evenodd" fill="none" stroke="#FFFFFF" stroke-width="0.75" stroke-miterlimit="10" d="
					M10.5,28.6c0,0-1,5.5,5.5,12.3l-7.1,8.8"/>
			</g>
		</g>
		<g>
			<g>
				<path fill-rule="evenodd" clip-rule="evenodd" fill="none" stroke="#FFFFFF" stroke-width="0.75" stroke-miterlimit="10" d="
					M36.8,34.9c-2.8,0-2.2-3.8-3.7-5.6c-1.3-1.6-3.1-2-3.5-3.6c3.3,0.7,4.2-1.3,3.9-6c0-2.7,2-7.8,3.3-10c-1.8-3.6-2.8-4-3.7-6.9
					c1.1,0.7,2.4,1.1,3.7,1.1c1.3,0,2.6-0.4,3.7-1.1c-0.9,2.9-1.8,3.3-3.7,6.9c1.3,2.2,3.3,7.4,3.3,10c-0.2,4.7,0.7,6.7,3.9,6
					c-0.2,1.6-2.2,2-3.5,3.6C39,31.1,39.6,34.9,36.8,34.9L36.8,34.9z"/>
				<line fill="none" stroke="#FFFFFF" stroke-width="0.75" stroke-miterlimit="10" x1="36.8" y1="29.2" x2="36.8" y2="23.9"/>
			</g>
			<g>
				<path fill-rule="evenodd" clip-rule="evenodd" fill="none" stroke="#FFFFFF" stroke-width="0.75" stroke-miterlimit="10" d="
					M34.5,36.5c-0.9,2.7-4.2,1.1-6.5,1.8c-1.8,0.9-2.9,2.4-4.5,2.4c1.6-2.9,0-4.4-4.7-5.8c-2.2-0.7-6.5-4.2-8.2-6.2
					c-4,0.7-4.9,1.6-7.8,1.6c1.1-0.9,1.9-2.2,2.2-3.3c0.4-1.3,0.4-2.7,0.2-4c2.2,1.8,2.5,2.9,5.3,5.8c2.5-0.4,8-0.9,10.5,0
					c4.5,1.6,6.5,1.3,6.9-2c1.6,0.7,1.3,2.9,2.5,4.4C31.8,33.2,35.4,33.6,34.5,36.5L34.5,36.5z"/>
				<line fill="none" stroke="#FFFFFF" stroke-width="0.75" stroke-miterlimit="10" x1="28.1" y1="34.4" x2="22.9" y2="33.1"/>
			</g>
			<g>
				<path fill-rule="evenodd" clip-rule="evenodd" fill="none" stroke="#FFFFFF" stroke-width="0.75" stroke-miterlimit="10" d="
					M39,36.3c-0.9-2.6,2.9-3.3,4-5c1.1-1.7,1.1-3.7,2.5-4.6c0.4,3.3,2.5,3.5,7,2c2.5-0.9,8.1-0.4,10.8,0c2.7-2.8,2.9-3.9,5.2-5.7
					c-0.2,1.5,0,2.6,0.4,3.9c0.4,1.3,0.9,2.4,2,3.3c-2.9,0-3.6-0.9-7.6-1.5c-2,2-6.3,5.5-8.5,6.1c-4.7,1.3-6.3,2.8-4.5,5.7
					c-1.8,0.2-2.9-1.5-4.7-2.2C43.2,37.4,39.9,39.2,39,36.3L39,36.3z"/>
				<line fill="none" stroke="#FFFFFF" stroke-width="0.75" stroke-miterlimit="10" x1="45.1" y1="34.1" x2="50.2" y2="32.8"/>
			</g>
			<g>
				<path fill-rule="evenodd" clip-rule="evenodd" fill="none" stroke="#FFFFFF" stroke-width="0.75" stroke-miterlimit="10" d="
					M35.4,39.2c2.4,1.8-0.4,4.4-0.2,6.6c0.2,2,1.3,3.5,0.7,5.1c-2.2-2.4-4-1.3-6.7,2.4c-1.3,2.2-6.2,5.1-8.7,6.2
					c-0.4,4,0,4.9-0.9,7.8c-0.4-1.3-1.3-2.3-2.4-3.1c-1.1-0.7-2.2-1.3-3.8-1.6c2.4-1.5,3.6-1.3,7.1-3.1c0.4-2.7,1.8-8,3.3-10
					c2.9-3.8,3.3-6,0.2-7.3c1.1-1.1,3.1-0.2,5.1-0.9C31.4,41,32.9,37.4,35.4,39.2L35.4,39.2z"/>
				<line fill="none" stroke="#FFFFFF" stroke-width="0.75" stroke-miterlimit="10" x1="31.8" y1="44" x2="28.4" y2="48"/>
			</g>
			<g>
				<path fill-rule="evenodd" clip-rule="evenodd" fill="none" stroke="#FFFFFF" stroke-width="0.75" stroke-miterlimit="10" d="
					M38.1,39.2c2.5-1.8,4,1.5,6.2,2.2c2,0.4,4-0.2,5.1,0.9c-2.9,1.3-2.7,3.5,0.4,7.3c1.3,2,2.7,7.3,3.1,9.9c3.6,1.8,4.7,1.5,7.1,3.1
					c-1.6,0.2-2.7,0.8-3.8,1.5c-1.2,0.8-2,1.8-2.5,3.1c-0.9-2.9-0.4-3.8-0.9-7.7c-2.5-1.3-7.1-4-8.7-6.2c-2.7-3.8-4.5-4.9-6.7-2.4
					c-0.7-1.5,0.7-3.1,0.7-5.1C38.5,43.6,35.9,41,38.1,39.2L38.1,39.2z"/>
				<line fill="none" stroke="#FFFFFF" stroke-width="0.75" stroke-miterlimit="10" x1="41.3" y1="43.7" x2="44.8" y2="47.7"/>
			</g>
		</g>
	</g>
</g>
</svg>
