<?xml version="1.0" encoding="utf-8"?>
<!-- Generator: Adobe Illustrator 21.1.0, SVG Export Plug-In . SVG Version: 6.00 Build 0)  -->
<svg version="1.1" id="Capa_1" xmlns="http://www.w3.org/2000/svg" xmlns:xlink="http://www.w3.org/1999/xlink" x="0px" y="0px"
	 viewBox="0 0 652.9 652.9" enable-background="new 0 0 652.9 652.9" xml:space="preserve">
<path fill-rule="evenodd" clip-rule="evenodd" fill="#222220" d="M100.8,616.6H53.2V487.8h47.5v40.6h32.9c7.4,0.2,12.6,1.9,17.4,6.9
	c1.9-4.4,4.5-6.9,8.1-6.9h82.5c3.7,0,5.9,3.6,7.4,5.9c4.3-3.2,10-5.9,15.4-5.9h151.7c9.3,0,19.9,10,24.8,16v-16h78.4
	c6.8,0,18.6,8.2,25.4,17.5c4.2-6.7,15.1-17.6,21.5-17.5h47.4v30.4c-12.7,0.5-16.9,5.1-21.8,13v44.8H469.4
	c-10.4-1.5-17.8-8.2-24.1-16.9v16.9H100.8z M550,608.3h32.7v-38.6c4.4-8,10.3-15.1,22.1-18.6v-13.6h-38.9c-7.2,4-13.8,8.6-15.9,17.6
	V608.3L550,608.3z M505.7,608.3v-29.4c0-8.5-13.4-8.7-13.4,0v29.4h-21c-13.2-2.3-21.3-10.4-22-26.9v-13.9h47.9v-11.9h-47.9v-18.1
	h69.9c9.4,1.8,19.7,9.9,20,22.8v47.9H505.7L505.7,608.3z M301.1,608.3H339v-47.9h13.4v47.9h37.9v-47.9h13.4v47.9h33.1V555
	c-5.5-9.3-11.7-15.5-18.9-17.4H301.1V608.3L301.1,608.3z M258.8,578.8v-20c0-3.4,2.9-6.1,6.6-6.1c3.6,0,6.6,2.7,6.6,6.1v20
	c0,3.4-2.9,6.1-6.6,6.1C261.7,584.9,258.8,582.2,258.8,578.8L258.8,578.8z M220.7,608l69,0.3v-8.6h-36.6v-12.1h36.4v-50.2h-25.2
	c-3.8,0.3-10.7,3.2-12.6,6.2L220.7,608L220.7,608z M158.2,539.6l2.8-1.9H194l0.3,50.6H206v-50.6h34.5l1.8,2l-32.9,68h-13.9
	L158.2,539.6L158.2,539.6z M133.6,608.3v-47.9h13.6v47.9h36.4l-34.3-61.7c-4.8-7.6-11.8-9.2-18.1-9h-26.9v70.7H133.6L133.6,608.3
	L133.6,608.3z M62.1,537.6v70.7H92v-70.7H62.1L62.1,537.6z M62.1,522.8H92v-26.2H62.1V522.8z"/>
<g>
	<path fill="#030104" d="M382,497H183.3c0-28.8,19.5-53.8,48.3-67c27.1,15.2,56.8,23,87.9,23c11.6,0,22.9-1.1,33.7-3.1
		C369,458.7,382,479.3,382,497z M383.7,285.9c18.9,31.9,24.3,60.4,11.1,73.5c-20.3,20.3-76.9-3.4-126.5-52.9
		C218.8,257,195.1,200.4,215.5,180c12.4-12.4,38.6-8.3,68.3,8.1c7,3.8,26.7-4.6,32.4-11.9c-52-35.5-104-45.8-128.5-21.3
		c-31.7,31.7-78.9,127.5,12.9,219.3c84,84,187.6,44.6,219.3,12.9c25.3-25.3,13.6-79.8-24.6-133.3
		C388.1,259.7,379.7,279.2,383.7,285.9z M259,234.8c0.9,7.7,7.9,13.3,15.6,12.4l45.9-5.1c2.9,4.8,6.9,8.8,11.7,11.7l-5.1,45.9
		c-0.9,7.7,4.7,14.7,12.4,15.6c0.5,0.1,1.1,0.1,1.6,0.1c7.1,0,13.2-5.3,14-12.5l5.1-46c13.6-4.5,23.5-17.1,23.5-32.2
		c0-18.8-15.2-34-34-34c-15.1,0-27.7,9.9-32.2,23.5l-45.9,5.1C263.7,220.1,258.1,227.1,259,234.8z M349.6,122.6c-9.4,0-17,7.6-17,17
		s7.6,17,17,17c49.6,0,68.1,18.4,68.1,68.1c0,9.4,7.6,17,17,17s17-7.6,17-17C451.7,156,418.3,122.6,349.6,122.6z M349.6,54.6
		c-9.4,0-17,7.6-17,17s7.6,17,17,17c75.1,0,136.1,61.1,136.1,136.1c0,9.4,7.6,17,17,17c9.4,0,17-7.6,17-17
		C519.8,130.9,443.4,54.6,349.6,54.6z"/>
</g>
</svg>
