<?xml version="1.0" encoding="utf-8"?>
<!-- Generator: Adobe Illustrator 22.1.0, SVG Export Plug-In . SVG Version: 6.00 Build 0)  -->
<svg version="1.1" id="Capa_1" xmlns="http://www.w3.org/2000/svg" xmlns:xlink="http://www.w3.org/1999/xlink" x="0px" y="0px"
	 viewBox="0 0 44 44.563" enable-background="new 0 0 44 44.563" xml:space="preserve">
<g>
	<path fill="#0086CF" d="M38.792,22.302c0,4.68-1.63,8.65-4.89,11.91c-3.26,3.261-7.23,4.89-11.91,4.89
		c-4.68,0-8.661-1.629-11.94-4.89c-3.28-3.259-4.92-7.23-4.92-11.91c0-4.68,1.64-8.66,4.92-11.94c3.279-3.28,7.26-4.92,11.94-4.92
		c4.68,0,8.649,1.641,11.91,4.92C37.162,13.643,38.792,17.622,38.792,22.302z M27.752,22.302c0-1.6-0.561-2.97-1.68-4.11
		c-1.121-1.14-2.481-1.71-4.08-1.71c-1.601,0-2.97,0.57-4.11,1.71c-1.14,1.14-1.71,2.511-1.71,4.11c0,1.6,0.57,2.97,1.71,4.11
		c1.14,1.14,2.509,1.71,4.11,1.71c1.599,0,2.959-0.57,4.08-1.71C27.191,25.272,27.752,23.902,27.752,22.302z"/>
</g>
</svg>
